<?xml version="1.0" encoding="utf-8"?>
<!-- Generator: Adobe Illustrator 24.0.0, SVG Export Plug-In . SVG Version: 6.00 Build 0)  -->
<svg version="1.1" id="logo" xmlns="http://www.w3.org/2000/svg" xmlns:xlink="http://www.w3.org/1999/xlink" x="0px" y="0px"
	 viewBox="0 0 947.8 947.8" style="enable-background:new 0 0 947.8 947.8;" xml:space="preserve">
<style type="text/css">
	.st0{fill:#FFFFFF;}
	.st1{fill:none;stroke:#FDFDFD;stroke-width:25;stroke-linecap:round;}
	.st2{fill:none;stroke:#FDFDFD;stroke-width:25;}
</style>
<title>D logo</title>
<path class="st0" d="M839.4,156.1C767.3,88,659.1,53.9,514.8,53.9H227.1v155.3c8-3.2,16.2-6,24.6-8.5c2.8-6.4,5.7-12.8,8.7-19.1
	v16.6c45.9-11.7,93.9-11.7,139.8,0v-16.6c3,6.3,5.9,12.7,8.7,19.1c53.2,15.6,100.5,46.7,136,89.3h30c-7.6,2.9-15.4,5.6-23.5,8.1
	c77.9,100.7,77.9,241.3,0,342c8,2.5,15.8,5.2,23.5,8.1h-30c-34.3,41.1-79.7,71.5-130.7,87.6c-4.4,10.3-9.1,20.4-14,30.3v-26.3
	c-45.9,11.7-93.9,11.7-139.8,0v26.3c-5-9.9-9.6-20-14-30.3c-6.5-2.1-13-4.3-19.3-6.8v164.9h287.7c131,0,235.9-39,314.7-117.1
	s118.1-182.5,118.1-313.4C947.6,326.7,911.5,224.3,839.4,156.1z"/>
<g id="layer1">
	<g id="path4784">
		<path class="st0" d="M330.4,189.5c154.4,0,279.6,125.2,279.6,279.6S484.8,748.7,330.4,748.7S50.8,623.5,50.8,469.1
			S175.9,189.5,330.4,189.5 M330.4,139.5C148.8,139.7,1.8,287.1,2,468.6S149.5,797.2,331.1,797s328.6-147.5,328.4-329.1
			c-0.1-132-79.2-251.1-200.8-302.4C418.1,148.2,374.4,139.4,330.4,139.5z"/>
	</g>
	<path id="path5512" class="st1" d="M85.7,648.2c139.8-52.4,349.5-52.4,489.3,0"/>
	<path id="path5516" class="st2" d="M50.2,469.1h560.3"/>
	<path id="path5520" class="st1" d="M260.5,181.7c-87.4,182.6-87.4,409.8,0,584.5"/>
	<path id="path6250" class="st1" d="M85.7,290c139.8,52.4,349.5,52.4,489.3,0"/>
	<path id="path9156" class="st1" d="M400.3,181.7c87.4,182.6,87.4,409.8,0,584.5"/>
</g>
</svg>
