<svg id="logo" xmlns="http://www.w3.org/2000/svg" viewBox="0 0 947.81 947.81"><defs><style>.cls-1,.cls-2{fill:none;stroke:#000;stroke-width:25px;}.cls-1{stroke-linecap:round;}</style></defs><title>D logo</title><path d="M839.4,156.15Q731.22,53.94,514.85,53.94H227.12V209.19q12-4.78,24.61-8.46,4.22-9.6,8.73-19.07v16.65a282,282,0,0,1,139.79,0V181.66q4.53,9.47,8.73,19.07A279.8,279.8,0,0,1,545,290h30q-11.43,4.29-23.46,8.09a279.57,279.57,0,0,1,0,342q12,3.81,23.46,8.09H545a279.82,279.82,0,0,1-130.73,87.64q-6.6,15.39-14,30.31V739.86a281.66,281.66,0,0,1-139.79,0v26.29q-7.45-14.91-14-30.31-9.81-3.08-19.3-6.85V893.87H514.85q196.54,0,314.65-117.14T947.59,463.36Q947.59,258.36,839.4,156.15Z"/><g id="layer1"><g id="path4784"><path d="M330.35,189.51c154.41,0,279.59,125.17,279.59,279.58S484.76,748.67,330.35,748.67,50.77,623.5,50.77,469.09,175.94,189.51,330.35,189.51m0-50a328.73,328.73,0,1,0,128.31,25.92,327.57,327.57,0,0,0-128.31-25.92Z"/></g><path id="path5512" class="cls-1" d="M85.72,648.2c139.79-52.42,349.48-52.42,489.27,0"/><path id="path5516" class="cls-2" d="M50.22,469.09H610.49"/><path id="path5520" class="cls-1" d="M260.46,181.66c-87.37,182.58-87.37,409.75,0,584.49"/><path id="path6250" class="cls-1" d="M85.72,290C225.51,342.4,435.2,342.4,575,290"/><path id="path9156" class="cls-1" d="M400.25,181.66c87.37,182.58,87.37,409.75,0,584.49"/></g></svg>